<svg xmlns="http://www.w3.org/2000/svg" version="1.1" xmlns:xlink="http://www.w3.org/1999/xlink" xmlns:svgjs="http://svgjs.dev/svgjs" width="2000" height="1247" viewBox="0 0 2000 1247"><g transform="matrix(1,0,0,1,-1.2121212121212466,0.504858299595071)"><svg viewBox="0 0 396 247" data-background-color="#ffffff" preserveAspectRatio="xMidYMid meet" height="1247" width="2000" xmlns="http://www.w3.org/2000/svg" xmlns:xlink="http://www.w3.org/1999/xlink"><g id="tight-bounds" transform="matrix(1,0,0,1,0.2400000000000091,-0.09999999999999432)"><svg viewBox="0 0 395.52 247.2" height="247.2" width="395.52"><g><svg></svg></g><g><svg viewBox="0 0 395.52 247.2" height="247.2" width="395.52"><g transform="matrix(1,0,0,1,87.48616901408451,47.215199999999996)"><svg viewBox="0 0 220.54766197183096 152.7696" height="152.7696" width="220.54766197183096"><g><svg viewBox="0 0 220.54766197183096 152.7696" height="152.7696" width="220.54766197183096"><g><svg viewBox="0 0 220.54766197183096 152.7696" height="152.7696" width="220.54766197183096"><g><svg viewBox="0 0 220.54766197183096 152.7696" height="152.7696" width="220.54766197183096"><g id="textblocktransform"><svg viewBox="0 0 220.54766197183096 152.7696" height="152.7696" width="220.54766197183096" id="textblock"><g><svg viewBox="0 0 220.54766197183096 152.7696" height="152.7696" width="220.54766197183096"><g transform="matrix(1,0,0,1,0,0)"><svg width="220.54766197183096" viewBox="3.78 -31.95 46.12 31.95" height="152.7696" data-palette-color="#4d7e3e"><path d="M7.88-31.95L7.88 0 3.78 0 3.78-31.95 7.88-31.95ZM23.7-3.48L23.7 0 5 0 5-3.48 23.7-3.48ZM23.18-18.03L23.18-14.58 6.13-14.58 6.13-18.03 23.18-18.03ZM23.55-31.95L23.55-28.48 4.98-28.48 4.98-31.95 23.55-31.95ZM49.72-28.73L33.1-3.5 49.9-3.5 49.9 0 28.3 0 28.3-3.28 44.92-28.5 28.45-28.5 28.45-31.95 49.72-31.95 49.72-28.73Z" opacity="1" transform="matrix(1,0,0,1,0,0)" fill="#4d7e3e" class="wordmark-text-0" data-fill-palette-color="primary" id="text-0"></path></svg></g></svg></g></svg></g></svg></g></svg></g></svg></g></svg></g><g><path d="M233.874 0c68.262 0 123.6 55.338 123.6 123.6 0 68.262-55.338 123.6-123.6 123.6-30.402 0-58.24-10.976-79.768-29.183l11.147 0c19.26 14.022 42.974 22.294 68.621 22.295 64.458 0 116.712-52.254 116.711-116.712 0-64.458-52.254-116.712-116.711-116.712-25.647 0-49.361 8.272-68.621 22.295l-11.147 0c21.528-18.206 49.366-29.183 79.768-29.183z" fill="#4d7e3e" stroke="transparent" data-fill-palette-color="tertiary"></path></g></svg></g><defs></defs></svg><rect width="395.52" height="247.2" fill="none" stroke="none" visibility="hidden"></rect></g></svg></g></svg>